<mxfile host="Electron" agent="Mozilla/5.0 (Windows NT 10.0; Win64; x64) AppleWebKit/537.36 (KHTML, like Gecko) draw.io/26.0.9 Chrome/128.0.6613.186 Electron/32.2.5 Safari/537.36" version="26.0.9">
  <diagram name="Page-1" id="6G6Hq-V1hO7HuQSxvWeN">
    <mxGraphModel dx="2261" dy="836" grid="1" gridSize="10" guides="1" tooltips="1" connect="1" arrows="1" fold="1" page="1" pageScale="1" pageWidth="827" pageHeight="1169" math="0" shadow="0">
      <root>
        <mxCell id="0" />
        <mxCell id="1" parent="0" />
        <mxCell id="WvpWICC-9Z74xrX9J6yu-5" value="" style="group" parent="1" vertex="1" connectable="0">
          <mxGeometry x="760" y="240" width="240" height="120" as="geometry" />
        </mxCell>
        <mxCell id="WvpWICC-9Z74xrX9J6yu-2" value="reactive-delegate app" style="rounded=1;whiteSpace=wrap;html=1;fontFamily=Comic Sans MS;sketch=1;curveFitting=1;jiggle=2;fontSize=14;fillColor=#d5e8d4;strokeColor=#82b366;" parent="WvpWICC-9Z74xrX9J6yu-5" vertex="1">
          <mxGeometry width="240" height="120" as="geometry" />
        </mxCell>
        <mxCell id="WvpWICC-9Z74xrX9J6yu-3" value="" style="shape=image;verticalLabelPosition=bottom;labelBackgroundColor=default;verticalAlign=top;aspect=fixed;imageAspect=0;image=https://blog.zenika.com/wp-content/uploads/2016/04/spring-boot-logo-1.png;" parent="WvpWICC-9Z74xrX9J6yu-5" vertex="1">
          <mxGeometry x="190" y="10" width="40" height="40" as="geometry" />
        </mxCell>
        <mxCell id="WvpWICC-9Z74xrX9J6yu-20" style="edgeStyle=orthogonalEdgeStyle;shape=connector;rounded=1;sketch=1;jiggle=2;curveFitting=1;orthogonalLoop=1;jettySize=auto;html=1;exitX=0.25;exitY=1;exitDx=0;exitDy=0;entryX=0;entryY=1;entryDx=0;entryDy=0;strokeColor=default;align=center;verticalAlign=middle;fontFamily=Helvetica;fontSize=11;fontColor=default;labelBackgroundColor=default;endArrow=classic;curved=0;" parent="WvpWICC-9Z74xrX9J6yu-5" source="WvpWICC-9Z74xrX9J6yu-2" target="WvpWICC-9Z74xrX9J6yu-2" edge="1">
          <mxGeometry relative="1" as="geometry">
            <Array as="points">
              <mxPoint x="60" y="160" />
              <mxPoint y="160" />
            </Array>
          </mxGeometry>
        </mxCell>
        <mxCell id="WvpWICC-9Z74xrX9J6yu-6" value="" style="group" parent="1" vertex="1" connectable="0">
          <mxGeometry x="120" y="240" width="240" height="120" as="geometry" />
        </mxCell>
        <mxCell id="WvpWICC-9Z74xrX9J6yu-21" style="edgeStyle=orthogonalEdgeStyle;shape=connector;curved=0;rounded=1;sketch=1;jiggle=2;curveFitting=1;orthogonalLoop=1;jettySize=auto;html=1;exitX=0;exitY=0.5;exitDx=0;exitDy=0;strokeColor=default;align=center;verticalAlign=middle;fontFamily=Helvetica;fontSize=11;fontColor=default;labelBackgroundColor=default;endArrow=classic;" parent="WvpWICC-9Z74xrX9J6yu-6" source="WvpWICC-9Z74xrX9J6yu-1" edge="1">
          <mxGeometry relative="1" as="geometry">
            <mxPoint x="-320" y="60" as="targetPoint" />
            <Array as="points">
              <mxPoint x="-40" y="60" />
              <mxPoint x="-40" y="100" />
              <mxPoint x="-280" y="100" />
              <mxPoint x="-280" y="60" />
            </Array>
          </mxGeometry>
        </mxCell>
        <mxCell id="WvpWICC-9Z74xrX9J6yu-1" value="reactive-front app" style="rounded=1;whiteSpace=wrap;html=1;fontFamily=Comic Sans MS;sketch=1;curveFitting=1;jiggle=2;fontSize=14;fillColor=#d5e8d4;strokeColor=#82b366;" parent="WvpWICC-9Z74xrX9J6yu-6" vertex="1">
          <mxGeometry width="240" height="120" as="geometry" />
        </mxCell>
        <mxCell id="WvpWICC-9Z74xrX9J6yu-4" value="" style="shape=image;verticalLabelPosition=bottom;labelBackgroundColor=default;verticalAlign=top;aspect=fixed;imageAspect=0;image=https://blog.zenika.com/wp-content/uploads/2016/04/spring-boot-logo-1.png;" parent="WvpWICC-9Z74xrX9J6yu-6" vertex="1">
          <mxGeometry x="190" y="10" width="40" height="40" as="geometry" />
        </mxCell>
        <mxCell id="WvpWICC-9Z74xrX9J6yu-9" value="" style="edgeStyle=orthogonalEdgeStyle;rounded=1;orthogonalLoop=1;jettySize=auto;html=1;sketch=1;curveFitting=1;jiggle=2;entryX=0;entryY=0.5;entryDx=0;entryDy=0;curved=0;" parent="1" source="WvpWICC-9Z74xrX9J6yu-7" target="WvpWICC-9Z74xrX9J6yu-1" edge="1">
          <mxGeometry relative="1" as="geometry">
            <mxPoint x="-160" y="300" as="targetPoint" />
            <Array as="points">
              <mxPoint x="-160" y="300" />
              <mxPoint x="-160" y="260" />
              <mxPoint x="80" y="260" />
              <mxPoint x="80" y="300" />
            </Array>
          </mxGeometry>
        </mxCell>
        <mxCell id="WvpWICC-9Z74xrX9J6yu-7" value="User" style="shape=umlActor;verticalLabelPosition=bottom;verticalAlign=top;html=1;outlineConnect=0;sketch=1;curveFitting=1;jiggle=2;" parent="1" vertex="1">
          <mxGeometry x="-240" y="260" width="40" height="80" as="geometry" />
        </mxCell>
        <mxCell id="WvpWICC-9Z74xrX9J6yu-10" value="GET /{version}/calculator/square?value=2" style="text;html=1;align=center;verticalAlign=middle;resizable=0;points=[];autosize=1;strokeColor=none;fillColor=none;fontFamily=Comic Sans MS;fontSize=14;fontColor=default;labelBackgroundColor=default;" parent="1" vertex="1">
          <mxGeometry x="-190" y="230" width="300" height="30" as="geometry" />
        </mxCell>
        <mxCell id="WvpWICC-9Z74xrX9J6yu-11" value="GET /delegate/{version}/calculator/square?value=2" style="text;html=1;align=center;verticalAlign=middle;resizable=0;points=[];autosize=1;strokeColor=none;fillColor=none;fontFamily=Comic Sans MS;fontSize=14;fontColor=default;labelBackgroundColor=default;" parent="1" vertex="1">
          <mxGeometry x="380" y="285" width="360" height="30" as="geometry" />
        </mxCell>
        <mxCell id="WvpWICC-9Z74xrX9J6yu-12" style="edgeStyle=orthogonalEdgeStyle;shape=connector;rounded=0;sketch=1;jiggle=2;curveFitting=1;orthogonalLoop=1;jettySize=auto;html=1;exitX=1;exitY=0.25;exitDx=0;exitDy=0;entryX=0;entryY=0.25;entryDx=0;entryDy=0;strokeColor=default;align=center;verticalAlign=middle;fontFamily=Helvetica;fontSize=11;fontColor=default;labelBackgroundColor=default;endArrow=classic;" parent="1" source="WvpWICC-9Z74xrX9J6yu-1" target="WvpWICC-9Z74xrX9J6yu-2" edge="1">
          <mxGeometry relative="1" as="geometry" />
        </mxCell>
        <mxCell id="WvpWICC-9Z74xrX9J6yu-13" style="edgeStyle=orthogonalEdgeStyle;shape=connector;rounded=0;sketch=1;jiggle=2;curveFitting=1;orthogonalLoop=1;jettySize=auto;html=1;exitX=0;exitY=0.75;exitDx=0;exitDy=0;entryX=1;entryY=0.75;entryDx=0;entryDy=0;strokeColor=default;align=center;verticalAlign=middle;fontFamily=Helvetica;fontSize=11;fontColor=default;labelBackgroundColor=default;endArrow=classic;" parent="1" source="WvpWICC-9Z74xrX9J6yu-2" target="WvpWICC-9Z74xrX9J6yu-1" edge="1">
          <mxGeometry relative="1" as="geometry" />
        </mxCell>
        <mxCell id="WvpWICC-9Z74xrX9J6yu-17" value="1" style="ellipse;whiteSpace=wrap;html=1;aspect=fixed;fontFamily=Comic Sans MS;fontSize=14;fontColor=default;labelBackgroundColor=default;sketch=1;curveFitting=1;jiggle=2;" parent="1" vertex="1">
          <mxGeometry x="-60" y="190" width="40" height="40" as="geometry" />
        </mxCell>
        <mxCell id="WvpWICC-9Z74xrX9J6yu-18" value="2" style="ellipse;whiteSpace=wrap;html=1;aspect=fixed;fontFamily=Comic Sans MS;fontSize=14;fontColor=default;labelBackgroundColor=default;sketch=1;curveFitting=1;jiggle=2;" parent="1" vertex="1">
          <mxGeometry x="540" y="220" width="40" height="40" as="geometry" />
        </mxCell>
        <mxCell id="WvpWICC-9Z74xrX9J6yu-19" value="3" style="ellipse;whiteSpace=wrap;html=1;aspect=fixed;fontFamily=Comic Sans MS;fontSize=14;fontColor=default;labelBackgroundColor=default;sketch=1;curveFitting=1;jiggle=2;" parent="1" vertex="1">
          <mxGeometry x="710" y="340" width="40" height="40" as="geometry" />
        </mxCell>
        <mxCell id="WvpWICC-9Z74xrX9J6yu-22" value="4" style="ellipse;whiteSpace=wrap;html=1;aspect=fixed;fontFamily=Comic Sans MS;fontSize=14;fontColor=default;labelBackgroundColor=default;sketch=1;curveFitting=1;jiggle=2;" parent="1" vertex="1">
          <mxGeometry x="-60" y="340" width="40" height="40" as="geometry" />
        </mxCell>
      </root>
    </mxGraphModel>
  </diagram>
</mxfile>
